<?xml version="1.0" encoding="UTF-8" standalone="no"?>
<svg
   xmlns:dc="http://purl.org/dc/elements/1.1/"
   xmlns:cc="http://creativecommons.org/ns#"
   xmlns:rdf="http://www.w3.org/1999/02/22-rdf-syntax-ns#"
   xmlns:svg="http://www.w3.org/2000/svg"
   xmlns="http://www.w3.org/2000/svg"
   xmlns:sodipodi="http://sodipodi.sourceforge.net/DTD/sodipodi-0.dtd"
   xmlns:inkscape="http://www.inkscape.org/namespaces/inkscape"
   viewBox="0 0 384 512"
   version="1.1"
   id="svg4"
   sodipodi:docname="clipboard-list-check-dark.svg"
   inkscape:version="0.92.3 (2405546, 2018-03-11)">
  <metadata
     id="metadata10">
    <rdf:RDF>
      <cc:Work
         rdf:about="">
        <dc:format>image/svg+xml</dc:format>
        <dc:type
           rdf:resource="http://purl.org/dc/dcmitype/StillImage" />
      </cc:Work>
    </rdf:RDF>
  </metadata>
  <defs
     id="defs8" />
  <sodipodi:namedview
     pagecolor="#ffffff"
     bordercolor="#666666"
     borderopacity="1"
     objecttolerance="10"
     gridtolerance="10"
     guidetolerance="10"
     inkscape:pageopacity="0"
     inkscape:pageshadow="2"
     inkscape:window-width="3072"
     inkscape:window-height="1634"
     id="namedview6"
     showgrid="false"
     inkscape:zoom="0.4609375"
     inkscape:cx="-129.08474"
     inkscape:cy="256"
     inkscape:window-x="-11"
     inkscape:window-y="-11"
     inkscape:window-maximized="1"
     inkscape:current-layer="svg4" />
  <path
     d="m 304.81356,110.1695 h -66.07458 c 0.29831,-1.99407 0.44746,-4.06484 0.44746,-6.1356 0,-23.698734 -18.71865,-42.949154 -41.76271,-42.949154 -23.04407,0 -41.76271,19.25042 -41.76271,42.949154 0,2.07076 0.14915,4.14153 0.44745,6.1356 H 90.033902 c -19.762716,0 -35.796615,16.48941 -35.796615,36.81356 v 269.9661 c 0,20.32415 16.033899,36.81356 35.796615,36.81356 H 304.81356 c 19.76271,0 35.79661,-16.48941 35.79661,-36.81356 v -269.9661 c 0,-20.32415 -16.0339,-36.81356 -35.79661,-36.81356 z M 197.42373,85.627116 c 9.91864,0 17.89831,8.20636 17.89831,18.406784 0,10.20043 -7.97967,18.40679 -17.89831,18.40679 -9.91864,0 -17.8983,-8.20636 -17.8983,-18.40679 0,-10.200424 7.97966,-18.406784 17.8983,-18.406784 z M 316.74576,416.94916 c 0,6.74915 -5.36949,12.27118 -11.9322,12.27118 H 90.033902 c -6.562716,0 -11.932207,-5.52203 -11.932207,-12.27118 v -269.9661 c 0,-6.74915 5.369491,-12.27118 11.932207,-12.27118 h 35.796608 v 15.33897 c 0,5.06187 4.02712,9.20339 8.94915,9.20339 h 125.28813 c 4.92204,0 8.94916,-4.14152 8.94916,-9.20339 v -15.33897 h 35.79661 c 6.56271,0 11.9322,5.52203 11.9322,12.27118 z M 137.76271,312.64408 c -9.91864,0 -17.8983,8.20635 -17.8983,18.40677 0,10.20043 7.97966,18.40678 17.8983,18.40678 9.91865,0 17.89831,-8.20635 17.89831,-18.40678 0,-10.20042 -7.97966,-18.40677 -17.89831,-18.40677 z m 125.28814,6.13558 h -83.52542 c -3.28136,0 -5.96611,2.76103 -5.96611,6.1356 v 12.27119 c 0,3.37457 2.68475,6.13559 5.96611,6.13559 h 83.52542 c 3.28136,0 5.9661,-2.76102 5.9661,-6.13559 v -12.27119 c 0,-3.37457 -2.68474,-6.1356 -5.9661,-6.1356 z M 148.35254,268.46781 196.2305,219.68984 c 1.56611,-1.6106 1.56611,-4.21822 0,-5.82882 l -9.39661,-9.74025 c -1.56609,-1.61059 -4.10169,-1.61059 -5.66779,0 l -35.4983,36.20001 -15.36272,-16.02925 c -1.56609,-1.61059 -4.10169,-1.61059 -5.6678,0 l -9.47118,9.66357 c -1.5661,1.61059 -1.5661,4.21821 0,5.82881 l 27.6678,28.6839 c 1.41695,1.61059 3.95254,1.61059 5.51864,0 z m 114.69831,-23.31526 h -57.87119 l -24.08814,24.54237 h 81.95933 c 3.28136,0 5.9661,-2.76101 5.9661,-6.13559 v -12.27119 c 0,-3.37458 -2.68474,-6.13559 -5.9661,-6.13559 z"
     id="path2"
     inkscape:connector-curvature="0"
     style="stroke-width:0.75628173;fill:#000000;fill-opacity:1" />
</svg>
