<?xml version="1.0" encoding="UTF-8" standalone="no"?>
<svg
   xmlns:dc="http://purl.org/dc/elements/1.1/"
   xmlns:cc="http://creativecommons.org/ns#"
   xmlns:rdf="http://www.w3.org/1999/02/22-rdf-syntax-ns#"
   xmlns:svg="http://www.w3.org/2000/svg"
   xmlns="http://www.w3.org/2000/svg"
   xmlns:sodipodi="http://sodipodi.sourceforge.net/DTD/sodipodi-0.dtd"
   xmlns:inkscape="http://www.inkscape.org/namespaces/inkscape"
   aria-hidden="true"
   data-prefix="far"
   data-icon="clock"
   class="svg-inline--fa fa-clock fa-w-16"
   role="img"
   viewBox="0 0 512 512"
   version="1.1"
   id="svg4"
   sodipodi:docname="clock-regular.svg"
   inkscape:version="0.92.3 (2405546, 2018-03-11)">
  <metadata
     id="metadata10">
    <rdf:RDF>
      <cc:Work
         rdf:about="">
        <dc:format>image/svg+xml</dc:format>
        <dc:type
           rdf:resource="http://purl.org/dc/dcmitype/StillImage" />
      </cc:Work>
    </rdf:RDF>
  </metadata>
  <defs
     id="defs8" />
  <sodipodi:namedview
     pagecolor="#ffffff"
     bordercolor="#666666"
     borderopacity="1"
     objecttolerance="10"
     gridtolerance="10"
     guidetolerance="10"
     inkscape:pageopacity="0"
     inkscape:pageshadow="2"
     inkscape:window-width="2880"
     inkscape:window-height="1526"
     id="namedview6"
     showgrid="false"
     inkscape:zoom="0.921875"
     inkscape:cx="256"
     inkscape:cy="256"
     inkscape:window-x="3061"
     inkscape:window-y="-11"
     inkscape:window-maximized="1"
     inkscape:current-layer="svg4" />
  <path
     d="m 260.05085,76.949153 c -96.6734,0 -175.000003,78.326617 -175.000003,174.999997 0,96.67338 78.326603,175 175.000003,175 96.67338,0 175,-78.32662 175,-175 0,-96.67338 -78.32662,-174.999997 -175,-174.999997 z m 0,316.129027 c -77.97379,0 -141.12904,-63.15524 -141.12904,-141.12903 0,-77.97379 63.15525,-141.12903 141.12904,-141.12903 77.97379,0 141.12903,63.15524 141.12903,141.12903 0,77.97379 -63.15524,141.12903 -141.12903,141.12903 z m 43.60887,-73.66935 -59.90927,-43.53831 c -2.1875,-1.62299 -3.45766,-4.16331 -3.45766,-6.84475 V 153.15883 c 0,-4.65727 3.81047,-8.46774 8.46774,-8.46774 h 22.58064 c 4.65726,0 8.46774,3.81047 8.46774,8.46774 v 99.98992 l 47.1371,34.29435 c 3.81049,2.75202 4.58669,8.04436 1.83468,11.85484 l -13.26613,18.27621 c -2.75202,3.73991 -8.04436,4.58669 -11.85484,1.83468 z"
     id="path2"
     inkscape:connector-curvature="0"
     style="fill:currentColor;stroke-width:0.7056452" />
</svg>
