<?xml version="1.0" encoding="UTF-8" standalone="no"?>
<svg
   xmlns:dc="http://purl.org/dc/elements/1.1/"
   xmlns:cc="http://creativecommons.org/ns#"
   xmlns:rdf="http://www.w3.org/1999/02/22-rdf-syntax-ns#"
   xmlns:svg="http://www.w3.org/2000/svg"
   xmlns="http://www.w3.org/2000/svg"
   xmlns:sodipodi="http://sodipodi.sourceforge.net/DTD/sodipodi-0.dtd"
   xmlns:inkscape="http://www.inkscape.org/namespaces/inkscape"
   aria-hidden="true"
   focusable="false"
   data-prefix="fas"
   data-icon="tasks"
   class="svg-inline--fa fa-tasks fa-w-16"
   role="img"
   viewBox="0 0 512 512"
   version="1.1"
   id="svg4"
   sodipodi:docname="tasks-dark.svg"
   inkscape:version="0.92.3 (2405546, 2018-03-11)">
  <metadata
     id="metadata10">
    <rdf:RDF>
      <cc:Work
         rdf:about="">
        <dc:format>image/svg+xml</dc:format>
        <dc:type
           rdf:resource="http://purl.org/dc/dcmitype/StillImage" />
      </cc:Work>
    </rdf:RDF>
  </metadata>
  <defs
     id="defs8" />
  <sodipodi:namedview
     pagecolor="#ffffff"
     bordercolor="#666666"
     borderopacity="1"
     objecttolerance="10"
     gridtolerance="10"
     guidetolerance="10"
     inkscape:pageopacity="0"
     inkscape:pageshadow="2"
     inkscape:window-width="3072"
     inkscape:window-height="1634"
     id="namedview6"
     showgrid="false"
     inkscape:zoom="0.4609375"
     inkscape:cx="297.22034"
     inkscape:cy="256"
     inkscape:window-x="-11"
     inkscape:window-y="-11"
     inkscape:window-maximized="1"
     inkscape:current-layer="svg4" />
  <path
     fill="currentColor"
     d="M208 132h288c8.8 0 16-7.2 16-16V76c0-8.8-7.2-16-16-16H208c-8.8 0-16 7.2-16 16v40c0 8.8 7.2 16 16 16zm0 160h288c8.8 0 16-7.2 16-16v-40c0-8.8-7.2-16-16-16H208c-8.8 0-16 7.2-16 16v40c0 8.8 7.2 16 16 16zm0 160h288c8.8 0 16-7.2 16-16v-40c0-8.8-7.2-16-16-16H208c-8.8 0-16 7.2-16 16v40c0 8.8 7.2 16 16 16zM64 368c-26.5 0-48.6 21.5-48.6 48s22.1 48 48.6 48 48-21.5 48-48-21.5-48-48-48zm92.5-299l-72.2 72.2-15.6 15.6c-4.7 4.7-12.9 4.7-17.6 0L3.5 109.4c-4.7-4.7-4.7-12.3 0-17l15.7-15.7c4.7-4.7 12.3-4.7 17 0l22.7 22.1 63.7-63.3c4.7-4.7 12.3-4.7 17 0l17 16.5c4.6 4.7 4.6 12.3-.1 17zm0 159.6l-72.2 72.2-15.7 15.7c-4.7 4.7-12.9 4.7-17.6 0L3.5 269c-4.7-4.7-4.7-12.3 0-17l15.7-15.7c4.7-4.7 12.3-4.7 17 0l22.7 22.1 63.7-63.7c4.7-4.7 12.3-4.7 17 0l17 17c4.6 4.6 4.6 12.2-.1 16.9z"
     id="path2"
     style="fill:#000000;fill-opacity:0.75686276" />
</svg>
